<svg xmlns="http://www.w3.org/2000/svg" viewBox="0 0 512 512">
  <defs>
    <linearGradient id="bg" x1="0" y1="0" x2="1" y2="1">
      <stop offset="0%" stop-color="#0A1628"/>
      <stop offset="100%" stop-color="#003087"/>
    </linearGradient>
  </defs>
  <rect width="512" height="512" rx="96" fill="url(#bg)"/>
  <!-- Wings left -->
  <path d="M256 210 C230 175 155 150 75 168 C115 190 178 212 222 248 Z" fill="#FFD700"/>
  <!-- Wings right -->
  <path d="M256 210 C282 175 357 150 437 168 C397 190 334 212 290 248 Z" fill="#FFD700"/>
  <!-- Body -->
  <ellipse cx="256" cy="305" rx="44" ry="68" fill="#FFD700"/>
  <!-- Head -->
  <circle cx="256" cy="198" r="34" fill="#FFD700"/>
  <!-- Beak -->
  <path d="M256 208 L278 220 L256 230 Z" fill="#E5B800"/>
  <!-- Eye -->
  <circle cx="266" cy="194" r="5" fill="#0A1628"/>
  <!-- Tail -->
  <path d="M236 368 L256 400 L276 368" stroke="#E5B800" stroke-width="9" fill="none" stroke-linecap="round" stroke-linejoin="round"/>
  <!-- Crown / flame above head -->
  <path d="M244 168 C244 148 234 135 240 120 C246 135 252 132 254 118 C257 132 260 130 262 118 C266 133 272 132 272 120 C278 135 268 148 268 168 Z" fill="#FFD700" opacity="0.7"/>
</svg>
